<svg width="212" height="80" viewBox="0 0 212 80" fill="none" xmlns="http://www.w3.org/2000/svg">
<g filter="url(#filter0_d_1230_26)">
<path d="M82.9851 67.98V62.58H82.5051C82.2051 62.58 81.9617 62.6 81.7751 62.64C81.5951 62.6733 81.4617 62.73 81.3751 62.81C81.2951 62.8833 81.2484 62.98 81.2351 63.1L81.1151 64.36H80.3951V61.9H86.8051V64.36H86.0851L85.9551 63.1C85.9484 62.98 85.9017 62.8833 85.8151 62.81C85.7284 62.73 85.5951 62.6733 85.4151 62.64C85.2351 62.6 84.9917 62.58 84.6851 62.58H84.2051V67.98C84.2051 68.1267 84.2851 68.2233 84.4451 68.27C84.6051 68.3167 84.7984 68.34 85.0251 68.34H85.2151V69H81.9851V68.34H82.1651C82.3917 68.34 82.5851 68.3167 82.7451 68.27C82.9051 68.2233 82.9851 68.1267 82.9851 67.98ZM88.4259 66.27C88.4259 66.69 88.4692 67.04 88.5559 67.32C88.6492 67.5933 88.7725 67.81 88.9259 67.97C89.0859 68.13 89.2725 68.2467 89.4859 68.32C89.7059 68.3867 89.9492 68.42 90.2159 68.42C90.4892 68.42 90.7292 68.3767 90.9359 68.29C91.1425 68.2033 91.3225 68.0867 91.4759 67.94C91.6292 67.7933 91.7625 67.63 91.8759 67.45L92.4359 67.86C92.3025 68.1133 92.1225 68.3367 91.8959 68.53C91.6759 68.7233 91.4159 68.8733 91.1159 68.98C90.8225 69.08 90.4959 69.13 90.1359 69.13C89.5825 69.13 89.0892 69.0233 88.6559 68.81C88.2225 68.59 87.8825 68.27 87.6359 67.85C87.3892 67.4233 87.2659 66.8967 87.2659 66.27C87.2659 65.6767 87.3759 65.16 87.5959 64.72C87.8225 64.28 88.1359 63.94 88.5359 63.7C88.9425 63.4533 89.4159 63.33 89.9559 63.33C90.3825 63.33 90.7492 63.3967 91.0559 63.53C91.3625 63.6633 91.6159 63.8633 91.8159 64.13C92.0225 64.3967 92.1759 64.7267 92.2759 65.12C92.3759 65.5133 92.4292 65.9733 92.4359 66.5H88.0859V65.87H91.5459L91.3059 66.11C91.2925 65.7033 91.2592 65.3667 91.2059 65.1C91.1525 64.8267 91.0725 64.6133 90.9659 64.46C90.8659 64.3 90.7325 64.1867 90.5659 64.12C90.4059 64.0467 90.2059 64.01 89.9659 64.01C89.7259 64.01 89.5092 64.0533 89.3159 64.14C89.1292 64.22 88.9692 64.35 88.8359 64.53C88.7092 64.7033 88.6092 64.9367 88.5359 65.23C88.4625 65.5167 88.4259 65.8633 88.4259 66.27ZM96.1896 68.41C96.4629 68.41 96.6963 68.3667 96.8896 68.28C97.0896 68.1933 97.2629 68.0767 97.4096 67.93C97.5563 67.7767 97.6829 67.61 97.7896 67.43L98.3396 67.82C98.2129 68.0867 98.0396 68.32 97.8196 68.52C97.6063 68.7133 97.3529 68.8633 97.0596 68.97C96.7729 69.07 96.4529 69.12 96.0996 69.12C95.5063 69.12 94.9929 69.0067 94.5596 68.78C94.1263 68.5533 93.7929 68.2233 93.5596 67.79C93.3263 67.3567 93.2096 66.8333 93.2096 66.22C93.2096 65.6067 93.3229 65.0867 93.5496 64.66C93.7829 64.2267 94.1163 63.8967 94.5496 63.67C94.9896 63.4433 95.5129 63.33 96.1196 63.33C96.4863 63.33 96.8063 63.3533 97.0796 63.4C97.3529 63.4467 97.5796 63.5 97.7596 63.56C97.9396 63.6133 98.0696 63.6633 98.1496 63.71V65.47H97.0896V64C97.1629 64 97.2263 64.0167 97.2796 64.05C97.3396 64.0767 97.3863 64.1133 97.4196 64.16C97.4529 64.2 97.4763 64.2433 97.4896 64.29C97.5096 64.33 97.5229 64.36 97.5296 64.38C97.3829 64.28 97.1896 64.2 96.9496 64.14C96.7163 64.0733 96.4496 64.04 96.1496 64.04C95.7429 64.04 95.4129 64.12 95.1596 64.28C94.9063 64.4333 94.7196 64.6733 94.5996 65C94.4863 65.3267 94.4296 65.7333 94.4296 66.22C94.4296 66.6067 94.4629 66.94 94.5296 67.22C94.5963 67.4933 94.6996 67.72 94.8396 67.9C94.9796 68.0733 95.1596 68.2033 95.3796 68.29C95.6063 68.37 95.8763 68.41 96.1896 68.41ZM100.947 61.28V68.35C100.947 68.37 100.98 68.39 101.047 68.41C101.12 68.4233 101.207 68.4333 101.307 68.44C101.414 68.4467 101.507 68.45 101.587 68.45H101.637V69H98.9669V68.45H99.0069C99.1735 68.45 99.3135 68.43 99.4269 68.39C99.5402 68.35 99.6269 68.2833 99.6869 68.19C99.7535 68.09 99.7869 67.95 99.7869 67.77V62.34C99.7869 62.2467 99.7602 62.1767 99.7069 62.13C99.6535 62.0833 99.5735 62.0467 99.4669 62.02C99.3602 61.9867 99.2269 61.9533 99.0669 61.92L98.9669 61.9V61.28H100.947ZM105.327 69H102.657V68.45H102.707C102.787 68.45 102.877 68.4467 102.977 68.44C103.084 68.4333 103.17 68.4233 103.237 68.41C103.31 68.39 103.347 68.37 103.347 68.35V64.92C103.347 64.7467 103.32 64.6033 103.267 64.49C103.22 64.37 103.137 64.28 103.017 64.22C102.904 64.16 102.75 64.13 102.557 64.13C102.357 64.13 102.154 64.1733 101.947 64.26C101.747 64.3467 101.547 64.48 101.347 64.66C101.147 64.8333 100.94 65.0567 100.727 65.33L100.737 64.82C100.93 64.5067 101.144 64.24 101.377 64.02C101.61 63.7933 101.86 63.62 102.127 63.5C102.4 63.38 102.69 63.32 102.997 63.32C103.33 63.32 103.607 63.3767 103.827 63.49C104.054 63.6033 104.224 63.7733 104.337 64C104.45 64.22 104.507 64.49 104.507 64.81V67.77C104.507 68.0367 104.574 68.2167 104.707 68.31C104.847 68.4033 105.04 68.45 105.287 68.45H105.327V69ZM105.877 69V68.45H105.917C106.084 68.45 106.224 68.43 106.337 68.39C106.451 68.35 106.537 68.2833 106.597 68.19C106.657 68.09 106.687 67.95 106.687 67.77V64.5C106.687 64.4067 106.661 64.34 106.607 64.3C106.561 64.2533 106.484 64.2167 106.377 64.19C106.271 64.1567 106.137 64.1233 105.977 64.09L105.877 64.07V63.43H107.627L107.837 64.66L107.857 64.68V68.35C107.857 68.37 107.891 68.39 107.957 68.41C108.031 68.4233 108.117 68.4333 108.217 68.44C108.324 68.4467 108.417 68.45 108.497 68.45H108.547V69H105.877ZM112.227 69H109.567V68.45H109.607C109.694 68.45 109.787 68.4467 109.887 68.44C109.987 68.4333 110.074 68.4233 110.147 68.41C110.221 68.39 110.257 68.37 110.257 68.35V64.92C110.257 64.7467 110.231 64.6033 110.177 64.49C110.131 64.37 110.047 64.28 109.927 64.22C109.814 64.16 109.661 64.13 109.467 64.13C109.267 64.13 109.064 64.1733 108.857 64.26C108.657 64.3467 108.457 64.48 108.257 64.66C108.057 64.8333 107.851 65.0567 107.637 65.33L107.647 64.82C107.841 64.5067 108.054 64.24 108.287 64.02C108.521 63.7933 108.771 63.62 109.037 63.5C109.311 63.38 109.601 63.32 109.907 63.32C110.241 63.32 110.517 63.3767 110.737 63.49C110.957 63.6033 111.124 63.7733 111.237 64C111.357 64.22 111.417 64.49 111.417 64.81V67.77C111.417 67.95 111.447 68.09 111.507 68.19C111.567 68.2833 111.654 68.35 111.767 68.39C111.887 68.43 112.031 68.45 112.197 68.45H112.227V69ZM118.508 66.23C118.508 66.83 118.395 67.35 118.168 67.79C117.941 68.2233 117.615 68.5567 117.188 68.79C116.768 69.0167 116.261 69.13 115.668 69.13C115.081 69.13 114.575 69.0167 114.148 68.79C113.728 68.5567 113.401 68.2233 113.168 67.79C112.941 67.35 112.828 66.83 112.828 66.23C112.828 65.7767 112.891 65.37 113.018 65.01C113.151 64.65 113.341 64.3467 113.588 64.1C113.835 63.8467 114.131 63.6567 114.478 63.53C114.831 63.3967 115.228 63.33 115.668 63.33C116.115 63.33 116.511 63.3967 116.858 63.53C117.205 63.6567 117.501 63.8467 117.748 64.1C118.001 64.3467 118.191 64.65 118.318 65.01C118.445 65.37 118.508 65.7767 118.508 66.23ZM114.048 66.23C114.048 66.75 114.101 67.17 114.208 67.49C114.321 67.81 114.498 68.0467 114.738 68.2C114.985 68.3533 115.295 68.43 115.668 68.43C116.055 68.43 116.365 68.3567 116.598 68.21C116.838 68.0567 117.015 67.82 117.128 67.5C117.241 67.1733 117.298 66.75 117.298 66.23C117.298 65.73 117.241 65.32 117.128 65C117.015 64.6733 116.838 64.43 116.598 64.27C116.365 64.11 116.055 64.03 115.668 64.03C115.295 64.03 114.985 64.11 114.738 64.27C114.498 64.43 114.321 64.6733 114.208 65C114.101 65.32 114.048 65.73 114.048 66.23ZM121.27 61.28V67.84C121.27 68.08 121.336 68.2433 121.47 68.33C121.603 68.41 121.793 68.45 122.04 68.45H122.08V69H119.3V68.45H119.34C119.586 68.45 119.776 68.41 119.91 68.33C120.05 68.2433 120.12 68.08 120.12 67.84V62.34C120.12 62.2467 120.093 62.1767 120.04 62.13C119.986 62.0833 119.903 62.0467 119.79 62.02C119.683 61.9867 119.55 61.9533 119.39 61.92L119.3 61.9V61.28H121.27ZM128.384 66.23C128.384 66.83 128.27 67.35 128.044 67.79C127.817 68.2233 127.49 68.5567 127.064 68.79C126.644 69.0167 126.137 69.13 125.544 69.13C124.957 69.13 124.45 69.0167 124.024 68.79C123.604 68.5567 123.277 68.2233 123.044 67.79C122.817 67.35 122.704 66.83 122.704 66.23C122.704 65.7767 122.767 65.37 122.894 65.01C123.027 64.65 123.217 64.3467 123.464 64.1C123.71 63.8467 124.007 63.6567 124.354 63.53C124.707 63.3967 125.104 63.33 125.544 63.33C125.99 63.33 126.387 63.3967 126.734 63.53C127.08 63.6567 127.377 63.8467 127.624 64.1C127.877 64.3467 128.067 64.65 128.194 65.01C128.32 65.37 128.384 65.7767 128.384 66.23ZM123.924 66.23C123.924 66.75 123.977 67.17 124.084 67.49C124.197 67.81 124.374 68.0467 124.614 68.2C124.86 68.3533 125.17 68.43 125.544 68.43C125.93 68.43 126.24 68.3567 126.474 68.21C126.714 68.0567 126.89 67.82 127.004 67.5C127.117 67.1733 127.174 66.75 127.174 66.23C127.174 65.73 127.117 65.32 127.004 65C126.89 64.6733 126.714 64.43 126.474 64.27C126.24 64.11 125.93 64.03 125.544 64.03C125.17 64.03 124.86 64.11 124.614 64.27C124.374 64.43 124.197 64.6733 124.084 65C123.977 65.32 123.924 65.73 123.924 66.23ZM135.337 64.1C135.031 64.08 134.767 64.07 134.547 64.07C134.334 64.07 134.147 64.08 133.987 64.1C133.834 64.1133 133.691 64.14 133.557 64.18L133.377 64.24C133.464 64.0067 133.564 63.8067 133.677 63.64C133.797 63.4733 133.934 63.34 134.087 63.24C134.241 63.1333 134.417 63.06 134.617 63.02C134.824 62.98 135.064 62.97 135.337 62.99V64.1ZM131.827 67.26C131.367 67.26 130.964 67.18 130.617 67.02C130.277 66.86 130.011 66.6333 129.817 66.34C129.631 66.0467 129.537 65.7033 129.537 65.31C129.537 64.91 129.631 64.5633 129.817 64.27C130.011 63.97 130.281 63.7367 130.627 63.57C130.974 63.4033 131.374 63.32 131.827 63.32C132.287 63.32 132.691 63.4033 133.037 63.57C133.384 63.7367 133.651 63.97 133.837 64.27C134.031 64.5633 134.127 64.91 134.127 65.31C134.127 65.7033 134.031 66.0467 133.837 66.34C133.651 66.6333 133.384 66.86 133.037 67.02C132.697 67.18 132.294 67.26 131.827 67.26ZM131.827 66.62C132.094 66.62 132.314 66.5733 132.487 66.48C132.661 66.38 132.787 66.2333 132.867 66.04C132.954 65.8467 132.997 65.6033 132.997 65.31C132.997 65.01 132.954 64.7633 132.867 64.57C132.787 64.37 132.661 64.22 132.487 64.12C132.314 64.02 132.094 63.97 131.827 63.97C131.567 63.97 131.351 64.02 131.177 64.12C131.004 64.22 130.874 64.37 130.787 64.57C130.707 64.7633 130.667 65.01 130.667 65.31C130.667 65.6033 130.707 65.8467 130.787 66.04C130.874 66.2333 131.004 66.38 131.177 66.48C131.351 66.5733 131.567 66.62 131.827 66.62ZM131.017 71.5C130.584 71.5 130.211 71.46 129.897 71.38C129.591 71.3 129.351 71.1733 129.177 71C129.011 70.8267 128.927 70.6033 128.927 70.33C128.927 70.11 128.974 69.9233 129.067 69.77C129.161 69.6167 129.307 69.4767 129.507 69.35C129.714 69.2233 129.974 69.0933 130.287 68.96L130.547 69.1C130.381 69.2333 130.251 69.3567 130.157 69.47C130.064 69.5833 130.001 69.6933 129.967 69.8C129.934 69.9067 129.917 70.0233 129.917 70.15C129.917 70.2967 129.954 70.42 130.027 70.52C130.107 70.6267 130.237 70.71 130.417 70.77C130.597 70.83 130.844 70.86 131.157 70.86H132.457C132.797 70.86 133.074 70.8233 133.287 70.75C133.507 70.6767 133.671 70.5667 133.777 70.42C133.891 70.2733 133.947 70.0933 133.947 69.88C133.947 69.6933 133.891 69.55 133.777 69.45C133.671 69.35 133.484 69.3 133.217 69.3H130.637L130.687 69.26C130.381 69.24 130.121 69.1867 129.907 69.1C129.694 69.0133 129.534 68.8933 129.427 68.74C129.327 68.5867 129.277 68.4067 129.277 68.2C129.277 67.9933 129.327 67.8067 129.427 67.64C129.534 67.4733 129.684 67.32 129.877 67.18C130.071 67.04 130.297 66.91 130.557 66.79L130.847 66.95C130.707 67.07 130.594 67.1767 130.507 67.27C130.421 67.3633 130.354 67.4533 130.307 67.54C130.267 67.6267 130.247 67.7167 130.247 67.81C130.247 67.9633 130.304 68.0767 130.417 68.15C130.531 68.2167 130.701 68.25 130.927 68.25H133.277C133.637 68.25 133.944 68.3 134.197 68.4C134.451 68.5 134.644 68.6533 134.777 68.86C134.911 69.0667 134.977 69.33 134.977 69.65C134.977 70.07 134.867 70.4167 134.647 70.69C134.427 70.9633 134.127 71.1667 133.747 71.3C133.374 71.4333 132.951 71.5 132.477 71.5H131.017ZM139.309 68.39L139.099 68.87L138.569 69.36L136.529 64.44C136.489 64.34 136.432 64.2667 136.359 64.22C136.292 64.1667 136.212 64.13 136.119 64.11C136.026 64.09 135.909 64.08 135.769 64.08H135.669V63.43H138.429V64.07H138.359C138.232 64.07 138.112 64.0733 137.999 64.08C137.886 64.08 137.789 64.0867 137.709 64.1C137.636 64.1067 137.599 64.12 137.599 64.14L139.309 68.39ZM139.419 68.83C139.219 69.31 139.029 69.71 138.849 70.03C138.669 70.3567 138.482 70.6167 138.289 70.81C138.096 71.0033 137.882 71.14 137.649 71.22C137.416 71.3067 137.142 71.35 136.829 71.35C136.622 71.35 136.432 71.33 136.259 71.29C136.086 71.2567 135.959 71.2167 135.879 71.17V70.26C135.899 70.2667 135.956 70.2833 136.049 70.31C136.149 70.3433 136.269 70.3733 136.409 70.4C136.556 70.4267 136.712 70.44 136.879 70.44C137.072 70.44 137.249 70.4167 137.409 70.37C137.569 70.3233 137.722 70.2333 137.869 70.1C138.016 69.9667 138.159 69.7667 138.299 69.5C138.446 69.24 138.596 68.9 138.749 68.48L138.909 68.24L140.509 64.27C140.509 64.23 140.472 64.1967 140.399 64.17C140.326 64.1367 140.229 64.1133 140.109 64.1C139.996 64.08 139.876 64.07 139.749 64.07H139.679V63.43H142.079V64.08H141.989C141.869 64.08 141.759 64.0933 141.659 64.12C141.559 64.1467 141.469 64.1967 141.389 64.27C141.316 64.3433 141.249 64.4467 141.189 64.58L139.419 68.83ZM151.373 65.95C151.339 66.1567 151.266 66.4 151.153 66.68C151.046 66.9533 150.899 67.23 150.713 67.51C150.526 67.79 150.296 68.0533 150.023 68.3C149.749 68.54 149.426 68.7333 149.053 68.88C148.686 69.0267 148.266 69.1 147.793 69.1C147.239 69.1 146.766 69.0267 146.373 68.88C145.979 68.7267 145.676 68.4933 145.463 68.18C145.256 67.8667 145.153 67.4567 145.153 66.95C145.153 66.6167 145.206 66.33 145.313 66.09C145.419 65.85 145.566 65.65 145.753 65.49C145.946 65.3233 146.169 65.1867 146.423 65.08C146.683 64.9667 146.959 64.87 147.253 64.79L147.463 65.2C147.243 65.2867 147.053 65.39 146.893 65.51C146.733 65.63 146.606 65.7967 146.513 66.01C146.426 66.2167 146.383 66.4967 146.383 66.85C146.383 67.2233 146.443 67.5267 146.563 67.76C146.689 67.9933 146.873 68.1633 147.113 68.27C147.359 68.3767 147.659 68.43 148.013 68.43C148.339 68.43 148.643 68.3733 148.923 68.26C149.203 68.14 149.456 67.9833 149.683 67.79C149.909 67.59 150.103 67.37 150.263 67.13C150.423 66.8833 150.543 66.6333 150.623 66.38C150.709 66.1267 150.753 65.8867 150.753 65.66C150.753 65.6333 150.716 65.6167 150.643 65.61C150.569 65.5967 150.486 65.5867 150.393 65.58C150.299 65.5733 150.213 65.57 150.133 65.57H150.053V64.92H152.243V65.57H152.133C151.986 65.57 151.859 65.58 151.753 65.6C151.646 65.6133 151.559 65.6467 151.493 65.7C151.433 65.7533 151.393 65.8367 151.373 65.95ZM152.173 69H150.533C150.106 68.5933 149.696 68.2 149.303 67.82C148.909 67.4333 148.543 67.0567 148.203 66.69C147.863 66.3233 147.563 65.9633 147.303 65.61C147.049 65.25 146.853 64.8967 146.713 64.55C146.573 64.2033 146.503 63.86 146.503 63.52C146.503 63.1333 146.589 62.8167 146.763 62.57C146.943 62.3167 147.186 62.13 147.493 62.01C147.806 61.8833 148.163 61.82 148.563 61.82C149.149 61.82 149.599 61.9333 149.913 62.16C150.233 62.3867 150.393 62.7233 150.393 63.17C150.393 63.45 150.329 63.6933 150.203 63.9C150.076 64.1 149.899 64.2733 149.673 64.42C149.446 64.5667 149.179 64.6967 148.873 64.81C148.573 64.9233 148.246 65.0333 147.893 65.14L147.663 64.68C147.963 64.58 148.219 64.49 148.433 64.41C148.653 64.3233 148.829 64.2333 148.963 64.14C149.103 64.04 149.206 63.9233 149.273 63.79C149.339 63.65 149.373 63.4767 149.373 63.27C149.373 62.9633 149.306 62.75 149.173 62.63C149.046 62.5033 148.846 62.44 148.573 62.44C148.373 62.44 148.199 62.47 148.053 62.53C147.913 62.59 147.803 62.6967 147.723 62.85C147.649 63.0033 147.613 63.22 147.613 63.5C147.613 63.7467 147.656 63.9933 147.743 64.24C147.836 64.4867 147.973 64.74 148.153 65C148.333 65.26 148.556 65.5367 148.823 65.83C149.089 66.1233 149.399 66.4433 149.753 66.79C150.106 67.13 150.499 67.51 150.933 67.93C151.039 68.03 151.133 68.11 151.213 68.17C151.293 68.2233 151.373 68.2633 151.453 68.29C151.533 68.3167 151.623 68.33 151.723 68.33H152.173V69ZM158.627 68.55C158.967 68.55 159.243 68.5133 159.457 68.44C159.677 68.36 159.833 68.2333 159.927 68.06C160.027 67.8867 160.077 67.6533 160.077 67.36C160.077 67.1 160.02 66.8867 159.907 66.72C159.8 66.5533 159.65 66.42 159.457 66.32C159.27 66.22 159.053 66.1333 158.807 66.06C158.56 65.9867 158.3 65.92 158.027 65.86C157.713 65.78 157.42 65.6933 157.147 65.6C156.873 65.5067 156.63 65.3833 156.417 65.23C156.203 65.0767 156.037 64.8733 155.917 64.62C155.797 64.3667 155.737 64.0433 155.737 63.65C155.737 63.23 155.827 62.8733 156.007 62.58C156.187 62.2867 156.45 62.0633 156.797 61.91C157.143 61.7567 157.567 61.68 158.067 61.68C158.48 61.68 158.83 61.7433 159.117 61.87C159.41 61.99 159.643 62.19 159.817 62.47C159.997 62.75 160.117 63.12 160.177 63.58L159.967 63.15L160.097 61.82H160.797V63.97H160.037C159.943 63.61 159.81 63.31 159.637 63.07C159.463 62.83 159.25 62.65 158.997 62.53C158.743 62.4033 158.45 62.34 158.117 62.34C157.79 62.34 157.53 62.3833 157.337 62.47C157.143 62.55 157.003 62.6733 156.917 62.84C156.837 63.0067 156.797 63.21 156.797 63.45C156.797 63.69 156.843 63.8833 156.937 64.03C157.037 64.1767 157.173 64.2967 157.347 64.39C157.52 64.4767 157.727 64.5533 157.967 64.62C158.207 64.68 158.47 64.7467 158.757 64.82C159.057 64.8933 159.35 64.9767 159.637 65.07C159.923 65.1633 160.183 65.29 160.417 65.45C160.657 65.6033 160.843 65.8067 160.977 66.06C161.117 66.3067 161.187 66.6233 161.187 67.01C161.187 67.5233 161.08 67.9433 160.867 68.27C160.66 68.5967 160.37 68.8367 159.997 68.99C159.623 69.1433 159.183 69.22 158.677 69.22C158.217 69.22 157.807 69.1533 157.447 69.02C157.093 68.8933 156.807 68.67 156.587 68.35C156.373 68.03 156.237 67.5967 156.177 67.05L156.407 67.51L156.287 69.07H155.557V66.65H156.357C156.457 67.0967 156.607 67.46 156.807 67.74C157.013 68.02 157.27 68.2267 157.577 68.36C157.883 68.4867 158.233 68.55 158.627 68.55ZM167.773 66.23C167.773 66.83 167.66 67.35 167.433 67.79C167.207 68.2233 166.88 68.5567 166.453 68.79C166.033 69.0167 165.527 69.13 164.933 69.13C164.347 69.13 163.84 69.0167 163.413 68.79C162.993 68.5567 162.667 68.2233 162.433 67.79C162.207 67.35 162.093 66.83 162.093 66.23C162.093 65.7767 162.157 65.37 162.283 65.01C162.417 64.65 162.607 64.3467 162.853 64.1C163.1 63.8467 163.397 63.6567 163.743 63.53C164.097 63.3967 164.493 63.33 164.933 63.33C165.38 63.33 165.777 63.3967 166.123 63.53C166.47 63.6567 166.767 63.8467 167.013 64.1C167.267 64.3467 167.457 64.65 167.583 65.01C167.71 65.37 167.773 65.7767 167.773 66.23ZM163.313 66.23C163.313 66.75 163.367 67.17 163.473 67.49C163.587 67.81 163.763 68.0467 164.003 68.2C164.25 68.3533 164.56 68.43 164.933 68.43C165.32 68.43 165.63 68.3567 165.863 68.21C166.103 68.0567 166.28 67.82 166.393 67.5C166.507 67.1733 166.563 66.75 166.563 66.23C166.563 65.73 166.507 65.32 166.393 65C166.28 64.6733 166.103 64.43 165.863 64.27C165.63 64.11 165.32 64.03 164.933 64.03C164.56 64.03 164.25 64.11 164.003 64.27C163.763 64.43 163.587 64.6733 163.473 65C163.367 65.32 163.313 65.73 163.313 66.23ZM170.535 61.28V67.84C170.535 68.08 170.601 68.2433 170.735 68.33C170.868 68.41 171.058 68.45 171.305 68.45H171.345V69H168.565V68.45H168.605C168.851 68.45 169.041 68.41 169.175 68.33C169.315 68.2433 169.385 68.08 169.385 67.84V62.34C169.385 62.2467 169.358 62.1767 169.305 62.13C169.251 62.0833 169.168 62.0467 169.055 62.02C168.948 61.9867 168.815 61.9533 168.655 61.92L168.565 61.9V61.28H170.535ZM173.819 63.43V67.51C173.819 67.6767 173.842 67.82 173.889 67.94C173.942 68.06 174.026 68.15 174.139 68.21C174.252 68.27 174.402 68.3 174.589 68.3C174.789 68.3 174.986 68.2567 175.179 68.17C175.379 68.0833 175.579 67.9533 175.779 67.78C175.979 67.6 176.186 67.3733 176.399 67.1L176.379 67.62C176.192 67.9267 175.982 68.1933 175.749 68.42C175.516 68.64 175.266 68.81 174.999 68.93C174.732 69.05 174.449 69.11 174.149 69.11C173.829 69.11 173.556 69.0533 173.329 68.94C173.102 68.8267 172.932 68.6567 172.819 68.43C172.706 68.2033 172.649 67.9333 172.649 67.62V64.5C172.649 64.3667 172.589 64.2733 172.469 64.22C172.356 64.16 172.179 64.1167 171.939 64.09L171.779 64.07V63.43H173.819ZM177.339 63.43V67.96C177.339 68.04 177.366 68.1067 177.419 68.16C177.479 68.2067 177.562 68.2467 177.669 68.28C177.782 68.3067 177.916 68.3333 178.069 68.36L178.149 68.37V69H176.409L176.199 67.74L176.179 67.68V64.5C176.179 64.3667 176.116 64.27 175.989 64.21C175.862 64.15 175.679 64.11 175.439 64.09L175.199 64.07V63.43H177.339ZM178.473 64.12V63.48H178.603C178.829 63.48 179.016 63.4667 179.163 63.44C179.316 63.4067 179.433 63.3367 179.513 63.23C179.593 63.1233 179.633 62.9667 179.633 62.76L180.403 63.43H182.553V64.12H178.473ZM180.723 67.41C180.723 67.6633 180.763 67.86 180.843 68C180.923 68.1333 181.039 68.2267 181.193 68.28C181.346 68.3333 181.529 68.36 181.743 68.36C181.929 68.36 182.103 68.35 182.263 68.33C182.423 68.3033 182.519 68.2867 182.553 68.28V68.99C182.473 69.01 182.373 69.03 182.253 69.05C182.139 69.07 182.016 69.0867 181.883 69.1C181.749 69.1133 181.616 69.12 181.483 69.12C181.136 69.12 180.816 69.0767 180.523 68.99C180.229 68.9033 179.996 68.74 179.823 68.5C179.649 68.26 179.563 67.91 179.563 67.45V63.58L179.633 63.49V61.82H180.723V67.41ZM184.57 62.47C184.33 62.47 184.137 62.41 183.99 62.29C183.85 62.17 183.78 61.9867 183.78 61.74C183.78 61.4933 183.85 61.31 183.99 61.19C184.137 61.07 184.33 61.01 184.57 61.01C184.803 61.01 184.993 61.07 185.14 61.19C185.287 61.31 185.36 61.4933 185.36 61.74C185.36 61.9867 185.287 62.17 185.14 62.29C184.993 62.41 184.803 62.47 184.57 62.47ZM185.23 63.43V67.84C185.23 68.08 185.297 68.2433 185.43 68.33C185.57 68.41 185.763 68.45 186.01 68.45H186.05V69H183.26V68.45H183.3C183.547 68.45 183.737 68.41 183.87 68.33C184.01 68.2433 184.08 68.08 184.08 67.84V64.5C184.08 64.3667 184.02 64.2767 183.9 64.23C183.78 64.1833 183.6 64.1367 183.36 64.09L183.26 64.07V63.43H185.23ZM192.345 66.23C192.345 66.83 192.232 67.35 192.005 67.79C191.779 68.2233 191.452 68.5567 191.025 68.79C190.605 69.0167 190.099 69.13 189.505 69.13C188.919 69.13 188.412 69.0167 187.985 68.79C187.565 68.5567 187.239 68.2233 187.005 67.79C186.779 67.35 186.665 66.83 186.665 66.23C186.665 65.7767 186.729 65.37 186.855 65.01C186.989 64.65 187.179 64.3467 187.425 64.1C187.672 63.8467 187.969 63.6567 188.315 63.53C188.669 63.3967 189.065 63.33 189.505 63.33C189.952 63.33 190.349 63.3967 190.695 63.53C191.042 63.6567 191.339 63.8467 191.585 64.1C191.839 64.3467 192.029 64.65 192.155 65.01C192.282 65.37 192.345 65.7767 192.345 66.23ZM187.885 66.23C187.885 66.75 187.939 67.17 188.045 67.49C188.159 67.81 188.335 68.0467 188.575 68.2C188.822 68.3533 189.132 68.43 189.505 68.43C189.892 68.43 190.202 68.3567 190.435 68.21C190.675 68.0567 190.852 67.82 190.965 67.5C191.079 67.1733 191.135 66.75 191.135 66.23C191.135 65.73 191.079 65.32 190.965 65C190.852 64.6733 190.675 64.43 190.435 64.27C190.202 64.11 189.892 64.03 189.505 64.03C189.132 64.03 188.822 64.11 188.575 64.27C188.335 64.43 188.159 64.6733 188.045 65C187.939 65.32 187.885 65.73 187.885 66.23ZM193.087 69V68.45H193.127C193.293 68.45 193.433 68.43 193.547 68.39C193.66 68.35 193.747 68.2833 193.807 68.19C193.867 68.09 193.897 67.95 193.897 67.77V64.5C193.897 64.4067 193.87 64.34 193.817 64.3C193.77 64.2533 193.693 64.2167 193.587 64.19C193.48 64.1567 193.347 64.1233 193.187 64.09L193.087 64.07V63.43H194.837L195.047 64.66L195.067 64.68V68.35C195.067 68.37 195.1 68.39 195.167 68.41C195.24 68.4233 195.327 68.4333 195.427 68.44C195.533 68.4467 195.627 68.45 195.707 68.45H195.757V69H193.087ZM199.437 69H196.777V68.45H196.817C196.903 68.45 196.997 68.4467 197.097 68.44C197.197 68.4333 197.283 68.4233 197.357 68.41C197.43 68.39 197.467 68.37 197.467 68.35V64.92C197.467 64.7467 197.44 64.6033 197.387 64.49C197.34 64.37 197.257 64.28 197.137 64.22C197.023 64.16 196.87 64.13 196.677 64.13C196.477 64.13 196.273 64.1733 196.067 64.26C195.867 64.3467 195.667 64.48 195.467 64.66C195.267 64.8333 195.06 65.0567 194.847 65.33L194.857 64.82C195.05 64.5067 195.263 64.24 195.497 64.02C195.73 63.7933 195.98 63.62 196.247 63.5C196.52 63.38 196.81 63.32 197.117 63.32C197.45 63.32 197.727 63.3767 197.947 63.49C198.167 63.6033 198.333 63.7733 198.447 64C198.567 64.22 198.627 64.49 198.627 64.81V67.77C198.627 67.95 198.657 68.09 198.717 68.19C198.777 68.2833 198.863 68.35 198.977 68.39C199.097 68.43 199.24 68.45 199.407 68.45H199.437V69ZM203.537 67.55C203.537 67.3833 203.497 67.2467 203.417 67.14C203.337 67.0267 203.227 66.94 203.087 66.88C202.954 66.8133 202.801 66.76 202.627 66.72C202.461 66.6733 202.284 66.63 202.097 66.59C201.864 66.5367 201.634 66.4767 201.407 66.41C201.187 66.3367 200.987 66.2433 200.807 66.13C200.627 66.0167 200.484 65.8633 200.377 65.67C200.271 65.4767 200.217 65.2333 200.217 64.94C200.217 64.5933 200.301 64.3 200.467 64.06C200.641 63.82 200.891 63.6367 201.217 63.51C201.544 63.3833 201.934 63.32 202.387 63.32C202.747 63.32 203.061 63.3367 203.327 63.37C203.594 63.4033 203.814 63.4433 203.987 63.49C204.161 63.5367 204.287 63.58 204.367 63.62V64.97H203.347V63.9C203.427 63.8933 203.491 63.9 203.537 63.92C203.591 63.9333 203.631 63.96 203.657 64C203.691 64.0333 203.714 64.08 203.727 64.14C203.747 64.1933 203.757 64.2533 203.757 64.32C203.671 64.2467 203.557 64.1867 203.417 64.14C203.284 64.0867 203.131 64.05 202.957 64.03C202.791 64.0033 202.604 63.99 202.397 63.99C201.997 63.99 201.707 64.0567 201.527 64.19C201.347 64.3167 201.257 64.5033 201.257 64.75C201.257 64.9167 201.294 65.0533 201.367 65.16C201.441 65.26 201.544 65.3433 201.677 65.41C201.811 65.47 201.967 65.5233 202.147 65.57C202.327 65.6167 202.517 65.66 202.717 65.7C202.951 65.7467 203.177 65.8067 203.397 65.88C203.624 65.9533 203.827 66.05 204.007 66.17C204.194 66.29 204.344 66.4467 204.457 66.64C204.571 66.8333 204.627 67.0733 204.627 67.36C204.627 67.7267 204.541 68.04 204.367 68.3C204.194 68.56 203.934 68.7633 203.587 68.91C203.241 69.05 202.804 69.12 202.277 69.12C201.917 69.12 201.597 69.0967 201.317 69.05C201.037 69.01 200.794 68.9567 200.587 68.89C200.381 68.8167 200.211 68.7433 200.077 68.67V67.24H201.117V68.67C201.011 68.6233 200.924 68.5767 200.857 68.53C200.791 68.4767 200.744 68.4233 200.717 68.37C200.697 68.31 200.687 68.2567 200.687 68.21C200.694 68.1567 200.707 68.1133 200.727 68.08C200.821 68.1333 200.941 68.19 201.087 68.25C201.241 68.3033 201.417 68.35 201.617 68.39C201.824 68.43 202.044 68.45 202.277 68.45C202.571 68.45 202.807 68.42 202.987 68.36C203.174 68.2933 203.311 68.1933 203.397 68.06C203.491 67.9267 203.537 67.7567 203.537 67.55Z" fill="#0EACE1"/>
</g>
<g filter="url(#filter1_d_1230_26)">
<path d="M67.9935 28.2017C71.8289 28.2242 73.0708 27.273 73.549 26.6555C75.3289 24.6154 72.5412 20.7053 66.0051 17.739C68.5402 13.5414 70.303 9.77886 71.1923 7.07631C71.6748 5.59752 71.3479 4.70126 71.2565 4.545C71.011 5.86003 68.9941 10.6026 64.3764 17.0515C60.8079 15.649 56.3087 14.539 50.9917 14.0765C49.7156 11.9589 46.0129 6.09379 42.3587 2.95997C39.9549 0.891177 38.0308 0.132411 36.5292 0.0261585H36.522C34.5479 -0.167596 33.2861 0.757424 32.6109 1.40119C30.1558 3.71749 29.1381 7.51007 29.0424 11.9102C28.009 10.3664 26.5916 8.83134 24.9743 8.66884H24.9486C21.9996 8.23383 19.4688 12.3214 19.81 18.8303C14.3344 19.0028 9.67537 19.5491 6.53507 20.2341C5.12194 20.5403 4.21982 21.1429 4 21.4491C4.14274 21.4016 7.19739 20.2966 19.9241 20.2966C20.6693 26.9217 24.1707 33.0243 23.6354 31.9456C22.2465 33.8706 18.177 39.7407 16.8823 44.1583C16.0445 47.0184 16.2586 48.8597 16.9038 50.051C17.6988 51.6447 19.2461 52.141 20.2153 52.3335C23.7839 53.0473 28.1203 51.8797 32.591 49.6909C31.5161 51.296 30.6069 53.2548 31.2977 54.6086C32.3412 57.0649 37.6483 56.9411 43.9217 53.4273C46.8022 57.4499 49.6413 60.6699 51.8724 62.6925C52.2386 63.0383 52.6591 63.3367 53.1213 63.5787C53.855 63.98 54.3461 64 54.3461 64C53.1699 63.1562 49.4929 59.2499 45.4191 52.5273C48.5908 50.5272 51.9352 47.6684 55.0498 43.8683C72.5812 44.4433 75.5031 40.7733 76.1754 39.9132C78.2694 37.4282 76.665 32.7331 67.9935 28.2017ZM56.8811 41.4795C60.2798 36.7657 61.2119 33.0081 61.0848 29.938C65.0616 32.1343 67.8193 34.6356 68.0877 37.2919C68.2504 38.9082 66.9315 40.932 56.8811 41.4795ZM34.9191 48.4609C36.3122 47.6822 37.7068 46.8209 39.0871 45.8996C40.0406 47.5659 41.0284 49.1622 42.0275 50.6735C36.2323 53.406 32.2013 52.2685 34.9191 48.4609ZM65.6083 27.0417C64.1395 26.3742 62.5879 25.7492 60.9864 25.1604C62.1208 23.6517 63.2032 22.1135 64.2323 20.5478C69.8077 23.5604 70.7841 27.1955 65.6083 27.0417ZM43.8089 49.7497C43.0224 48.3309 42.2388 46.8121 41.4537 45.1946C47.6273 45.3534 50.3636 42.8533 50.4864 42.6433C50.4864 42.6521 46.9178 44.5983 41.5608 44.1746C45.9339 40.9758 49.9951 37.4636 53.7023 33.6744C54.9451 32.3985 56.1313 31.1022 57.2608 29.7855C57.2094 29.7493 57.041 29.4105 54.9042 28.2855C47.5245 35.8194 40.2961 40.5358 35.9554 42.7758C33.0163 41.3783 30.1258 38.8032 28.0033 35.0894C25.1485 30.0993 23.7211 24.7904 23.497 20.5803C25.2527 20.6941 27.104 20.8516 29.0424 21.0653C25.8607 25.6654 26.9884 28.9405 27.1197 29.0943C27.1197 29.0855 26.9841 25.4479 29.9945 21.6479C31.2773 28.2092 33.4168 34.6197 36.3707 40.7533C36.5035 40.7058 36.6334 40.8633 39.0357 39.722C35.2773 30.413 34.2168 22.4504 34.1825 18.0428C37.0373 16.4903 41.0598 15.5677 45.8344 15.8165C52.1964 16.1502 58.1615 17.7228 62.438 19.6553C61.4208 20.9603 60.3107 22.3133 59.1079 23.7142C56.1489 18.9991 52.362 18.229 52.1336 18.249C52.1493 18.249 55.8306 20.0078 58.0602 24.1517C52.7078 22.4314 47.2008 21.1056 41.5965 20.1878C39.7316 19.8852 37.8565 19.633 35.9739 19.4316C35.9639 19.4878 35.7155 19.6628 35.6656 21.9729C46.7808 23.7842 55.1711 26.9592 59.5361 29.1243C59.6417 32.0681 58.5441 35.5757 55.9091 39.0707C52.3977 43.7346 47.8599 47.4747 43.8089 49.7497ZM47.72 13.8739C41.3595 13.6664 37.2172 14.8027 34.2039 16.4578C34.4894 9.92011 37.2457 6.91005 39.658 7.04756C42.0704 6.51754 47.4945 13.5677 47.72 13.8739ZM29.071 14.2615C29.1395 15.7752 29.2979 17.339 29.5292 18.9216C27.4523 18.8153 25.4268 18.7653 23.477 18.764C23.4655 19.1691 23.4598 12.3889 26.9984 12.5652H27.0112C27.8334 12.7014 28.5286 13.4252 29.071 14.2615ZM25.0657 34.5119C28.029 39.4745 31.2463 42.0833 34.3795 43.5508C27.7007 46.6459 23.3128 46.0509 22.258 44.1146C22.2294 44.0883 20.6693 42.202 25.0657 34.5131V34.5119Z" fill="#0EACE1"/>
</g>
<g filter="url(#filter2_d_1230_26)">
<path d="M114.222 33.248V44H86.5263V41.072H87.0063C87.8383 41.072 88.5263 40.96 89.0703 40.736C89.6143 40.512 89.8863 40.048 89.8863 39.344V14.576C89.8863 13.872 89.6143 13.408 89.0703 13.184C88.5263 12.96 87.8383 12.848 87.0063 12.848H86.5263V9.92H112.926V19.472H109.278L108.846 15.44C108.782 14.864 108.558 14.432 108.174 14.144C107.79 13.824 107.23 13.616 106.494 13.52C105.79 13.392 104.926 13.328 103.902 13.328H99.1503V40.592H104.334C105.294 40.592 106.11 40.56 106.782 40.496C107.454 40.432 107.998 40.32 108.414 40.16C108.862 40 109.198 39.792 109.422 39.536C109.678 39.248 109.822 38.88 109.854 38.432L110.478 33.248H114.222ZM97.8543 25.088C99.1663 24.992 100.43 24.912 101.646 24.848C102.894 24.784 104.11 24.704 105.294 24.608C106.478 24.512 107.646 24.416 108.798 24.32V28.784C107.646 28.656 106.478 28.56 105.294 28.496C104.11 28.4 102.894 28.32 101.646 28.256C100.43 28.16 99.1663 28.096 97.8543 28.064V25.088ZM131.476 8.576V39.824C131.476 40.4 131.716 40.784 132.196 40.976C132.676 41.168 133.284 41.264 134.02 41.264H134.068V44H120.148V41.264H120.196C120.932 41.264 121.54 41.168 122.02 40.976C122.5 40.784 122.74 40.4 122.74 39.824V13.088C122.74 12.768 122.66 12.512 122.5 12.32C122.34 12.128 122.1 11.968 121.78 11.84C121.492 11.712 121.092 11.6 120.58 11.504L120.148 11.408V8.576H131.476ZM153.61 54.704H138.778V51.968H138.826C139.306 51.968 139.738 51.92 140.122 51.824C140.506 51.76 140.794 51.616 140.986 51.392C141.21 51.2 141.322 50.912 141.322 50.528V23.888C141.322 23.536 141.242 23.28 141.082 23.12C140.954 22.928 140.73 22.768 140.41 22.64C140.09 22.512 139.674 22.4 139.162 22.304L138.778 22.208V19.328H149.53V25.52L150.106 25.616V51.536C150.106 51.632 150.266 51.712 150.586 51.776C150.906 51.84 151.29 51.888 151.738 51.92C152.218 51.952 152.65 51.968 153.034 51.968H153.61V54.704ZM157.114 44.48C155.802 44.48 154.634 44.32 153.61 44C152.618 43.68 151.722 43.168 150.922 42.464C150.122 41.76 149.386 40.864 148.714 39.776L149.098 34.832C149.546 35.984 150.026 36.992 150.538 37.856C151.082 38.688 151.69 39.328 152.362 39.776C153.066 40.224 153.866 40.448 154.762 40.448C155.562 40.448 156.266 40.24 156.874 39.824C157.482 39.408 157.978 38.816 158.362 38.048C158.746 37.248 159.034 36.288 159.226 35.168C159.418 34.048 159.514 32.784 159.514 31.376C159.514 30.032 159.418 28.832 159.226 27.776C159.034 26.72 158.746 25.84 158.362 25.136C158.01 24.432 157.562 23.904 157.018 23.552C156.474 23.168 155.834 22.976 155.098 22.976C154.202 22.976 153.402 23.232 152.698 23.744C151.994 24.224 151.338 24.928 150.73 25.856C150.122 26.784 149.546 27.888 149.002 29.168L148.714 24.896C149.482 23.552 150.282 22.432 151.114 21.536C151.978 20.64 152.922 19.968 153.946 19.52C155.002 19.072 156.218 18.848 157.594 18.848C159.802 18.848 161.722 19.376 163.354 20.432C164.986 21.456 166.25 22.912 167.146 24.8C168.042 26.688 168.49 28.88 168.49 31.376C168.49 33.936 168.01 36.208 167.05 38.192C166.09 40.144 164.762 41.68 163.066 42.8C161.37 43.92 159.386 44.48 157.114 44.48ZM185.426 8.576V40.736C185.426 40.864 185.538 40.976 185.762 41.072C185.986 41.136 186.274 41.184 186.626 41.216C186.978 41.248 187.298 41.264 187.586 41.264H187.73V44H174.05V41.264H174.146C174.594 41.264 175.01 41.232 175.394 41.168C175.778 41.072 176.082 40.928 176.306 40.736C176.53 40.512 176.642 40.208 176.642 39.824V13.088C176.642 12.768 176.562 12.512 176.402 12.32C176.274 12.128 176.05 11.968 175.73 11.84C175.41 11.712 174.994 11.6 174.482 11.504L174.05 11.408V8.576H185.426ZM204.29 44H190.658V41.264H190.706C190.994 41.264 191.314 41.248 191.666 41.216C192.018 41.184 192.322 41.136 192.578 41.072C192.834 41.008 192.962 40.928 192.962 40.832V26.912C192.962 26.112 192.866 25.456 192.674 24.944C192.482 24.432 192.194 24.048 191.81 23.792C191.426 23.536 190.914 23.408 190.274 23.408C189.506 23.408 188.786 23.616 188.114 24.032C187.442 24.448 186.802 25.072 186.194 25.904C185.618 26.704 185.058 27.696 184.514 28.88L184.37 24.848C184.978 23.568 185.73 22.496 186.626 21.632C187.522 20.736 188.546 20.048 189.698 19.568C190.882 19.088 192.162 18.848 193.538 18.848C195.202 18.848 196.642 19.168 197.858 19.808C199.074 20.416 200.018 21.344 200.69 22.592C201.362 23.808 201.698 25.328 201.698 27.152V39.824C201.698 40.4 201.938 40.784 202.418 40.976C202.898 41.168 203.49 41.264 204.194 41.264H204.29V44Z" fill="#6A00F0" fill-opacity="0.9" shape-rendering="crispEdges"/>
<path d="M114.222 33.248H115.222V32.248H114.222V33.248ZM114.222 44V45H115.222V44H114.222ZM86.5263 44H85.5263V45H86.5263V44ZM86.5263 41.072V40.072H85.5263V41.072H86.5263ZM89.0703 40.736L89.451 41.6607L89.0703 40.736ZM89.0703 13.184L88.6895 14.1087L88.6895 14.1087L89.0703 13.184ZM86.5263 12.848H85.5263V13.848H86.5263V12.848ZM86.5263 9.92V8.92H85.5263V9.92H86.5263ZM112.926 9.92H113.926V8.92H112.926V9.92ZM112.926 19.472V20.472H113.926V19.472H112.926ZM109.278 19.472L108.284 19.5785L108.38 20.472H109.278V19.472ZM108.846 15.44L109.841 15.3335L109.84 15.3296L108.846 15.44ZM108.174 14.144L107.534 14.9122L107.554 14.9286L107.574 14.944L108.174 14.144ZM106.494 13.52L106.315 14.5039L106.34 14.5084L106.365 14.5116L106.494 13.52ZM99.1503 13.328V12.328H98.1503V13.328H99.1503ZM99.1503 40.592H98.1503V41.592H99.1503V40.592ZM106.782 40.496L106.687 39.5005L106.782 40.496ZM108.414 40.16L108.078 39.2183L108.067 39.2223L108.055 39.2267L108.414 40.16ZM109.422 39.536L108.675 38.8716L108.67 38.8775L109.422 39.536ZM109.854 38.432L108.861 38.3125L108.859 38.3366L108.857 38.3608L109.854 38.432ZM110.478 33.248V32.248H109.591L109.485 33.1285L110.478 33.248ZM97.8542 25.088L97.7813 24.0907L96.8542 24.1585V25.088H97.8542ZM101.646 24.848L101.595 23.8493L101.594 23.8494L101.646 24.848ZM105.294 24.608L105.375 25.6047L105.294 24.608ZM108.798 24.32H109.798V23.2332L108.715 23.3235L108.798 24.32ZM108.798 28.784L108.688 29.7779L109.798 29.9013V28.784H108.798ZM105.294 28.496L105.213 29.4927L105.227 29.4938L105.24 29.4945L105.294 28.496ZM101.646 28.256L101.568 29.2529L101.581 29.254L101.595 29.2547L101.646 28.256ZM97.8542 28.064H96.8542V29.0399L97.8299 29.0637L97.8542 28.064ZM113.222 33.248V44H115.222V33.248H113.222ZM114.222 43H86.5263V45H114.222V43ZM87.5263 44V41.072H85.5263V44H87.5263ZM86.5263 42.072H87.0063V40.072H86.5263V42.072ZM87.0063 42.072C87.9188 42.072 88.7472 41.9505 89.451 41.6607L88.6895 39.8113C88.3053 39.9695 87.7577 40.072 87.0063 40.072V42.072ZM89.451 41.6607C89.905 41.4737 90.2879 41.1642 90.5449 40.7257C90.7945 40.3 90.8863 39.8203 90.8863 39.344H88.8863C88.8863 39.5717 88.842 39.676 88.8196 39.7143C88.8046 39.7398 88.7795 39.7743 88.6895 39.8113L89.451 41.6607ZM90.8863 39.344V14.576H88.8863V39.344H90.8863ZM90.8863 14.576C90.8863 14.0997 90.7945 13.62 90.5449 13.1943C90.2879 12.7558 89.905 12.4463 89.451 12.2593L88.6895 14.1087C88.7795 14.1457 88.8046 14.1802 88.8196 14.2057C88.842 14.244 88.8863 14.3483 88.8863 14.576H90.8863ZM89.451 12.2593C88.7472 11.9695 87.9188 11.848 87.0063 11.848V13.848C87.7577 13.848 88.3053 13.9505 88.6895 14.1087L89.451 12.2593ZM87.0063 11.848H86.5263V13.848H87.0063V11.848ZM87.5263 12.848V9.92H85.5263V12.848H87.5263ZM86.5263 10.92H112.926V8.92H86.5263V10.92ZM111.926 9.92V19.472H113.926V9.92H111.926ZM112.926 18.472H109.278V20.472H112.926V18.472ZM110.273 19.3655L109.841 15.3335L107.852 15.5465L108.284 19.5785L110.273 19.3655ZM109.84 15.3296C109.752 14.5406 109.424 13.8314 108.774 13.344L107.574 14.944C107.692 15.0326 107.812 15.1874 107.852 15.5504L109.84 15.3296ZM108.814 13.3758C108.23 12.889 107.462 12.6378 106.624 12.5284L106.365 14.5116C106.998 14.5942 107.35 14.759 107.534 14.9122L108.814 13.3758ZM106.673 12.5361C105.891 12.3939 104.963 12.328 103.902 12.328V14.328C104.89 14.328 105.69 14.3901 106.315 14.5039L106.673 12.5361ZM103.902 12.328H99.1503V14.328H103.902V12.328ZM98.1503 13.328V40.592H100.15V13.328H98.1503ZM99.1503 41.592H104.334V39.592H99.1503V41.592ZM104.334 41.592C105.314 41.592 106.164 41.5595 106.877 41.4915L106.687 39.5005C106.057 39.5605 105.275 39.592 104.334 39.592V41.592ZM106.877 41.4915C107.598 41.4228 108.241 41.2981 108.773 41.0933L108.055 39.2267C107.756 39.3419 107.31 39.4412 106.687 39.5005L106.877 41.4915ZM108.751 41.1017C109.299 40.906 109.803 40.6199 110.175 40.1945L108.67 38.8775C108.594 38.9641 108.426 39.094 108.078 39.2183L108.751 41.1017ZM110.17 40.2004C110.595 39.7213 110.807 39.1332 110.852 38.5032L108.857 38.3608C108.838 38.6268 108.761 38.7747 108.675 38.8716L110.17 40.2004ZM110.847 38.5515L111.471 33.3675L109.485 33.1285L108.861 38.3125L110.847 38.5515ZM110.478 34.248H114.222V32.248H110.478V34.248ZM97.9272 26.0853C99.233 25.9898 100.49 25.9102 101.699 25.8466L101.594 23.8494C100.37 23.9138 99.0995 23.9942 97.7813 24.0907L97.9272 26.0853ZM101.697 25.8467C102.955 25.7822 104.181 25.7016 105.375 25.6047L105.213 23.6113C104.04 23.7064 102.834 23.7858 101.595 23.8493L101.697 25.8467ZM105.375 25.6047C106.56 25.5087 107.729 25.4126 108.881 25.3165L108.715 23.3235C107.564 23.4194 106.397 23.5153 105.213 23.6113L105.375 25.6047ZM107.798 24.32V28.784H109.798V24.32H107.798ZM108.909 27.7901C107.737 27.66 106.551 27.5625 105.348 27.4975L105.24 29.4945C106.406 29.5575 107.555 29.652 108.688 29.7779L108.909 27.7901ZM105.375 27.4993C104.181 27.4024 102.955 27.3218 101.697 27.2573L101.595 29.2547C102.834 29.3182 104.04 29.3976 105.213 29.4927L105.375 27.4993ZM101.725 27.2591C100.49 27.1616 99.2074 27.0967 97.8786 27.0643L97.8299 29.0637C99.1251 29.0953 100.371 29.1584 101.568 29.2529L101.725 27.2591ZM98.8542 28.064V25.088H96.8542V28.064H98.8542ZM131.476 8.576H132.476V7.576H131.476V8.576ZM132.196 40.976L132.568 40.0475L132.196 40.976ZM134.068 41.264H135.068V40.264H134.068V41.264ZM134.068 44V45H135.068V44H134.068ZM120.148 44H119.148V45H120.148V44ZM120.148 41.264V40.264H119.148V41.264H120.148ZM122.02 40.976L122.392 41.9045L122.02 40.976ZM121.78 11.84L121.374 12.7538L121.391 12.7615L121.409 12.7685L121.78 11.84ZM120.58 11.504L120.363 12.4802L120.38 12.4838L120.396 12.4869L120.58 11.504ZM120.148 11.408H119.148V12.2102L119.931 12.3842L120.148 11.408ZM120.148 8.576V7.576H119.148V8.576H120.148ZM130.476 8.576V39.824H132.476V8.576H130.476ZM130.476 39.824C130.476 40.249 130.565 40.6851 130.808 41.074C131.056 41.4709 131.417 41.7412 131.825 41.9045L132.568 40.0475C132.528 40.0317 132.511 40.0188 132.506 40.0151C132.504 40.0131 132.503 40.0124 132.504 40.013C132.504 40.0136 132.504 40.0141 132.504 40.014C132.504 40.0139 132.503 40.0116 132.501 40.0064C132.498 40.001 132.495 39.9917 132.492 39.9775C132.484 39.9485 132.476 39.8993 132.476 39.824H130.476ZM131.825 41.9045C132.462 42.1592 133.207 42.264 134.02 42.264V40.264C133.362 40.264 132.891 40.1768 132.568 40.0475L131.825 41.9045ZM134.02 42.264H134.068V40.264H134.02V42.264ZM133.068 41.264V44H135.068V41.264H133.068ZM134.068 43H120.148V45H134.068V43ZM121.148 44V41.264H119.148V44H121.148ZM120.148 42.264H120.196V40.264H120.148V42.264ZM120.196 42.264C121.01 42.264 121.755 42.1592 122.392 41.9045L121.649 40.0475C121.326 40.1768 120.855 40.264 120.196 40.264V42.264ZM122.392 41.9045C122.8 41.7412 123.16 41.4709 123.408 41.074C123.651 40.6851 123.74 40.249 123.74 39.824H121.74C121.74 39.8993 121.732 39.9485 121.725 39.9775C121.722 39.9917 121.718 40.001 121.716 40.0064C121.714 40.0116 121.712 40.0139 121.712 40.014C121.712 40.0141 121.713 40.0136 121.713 40.013C121.714 40.0124 121.713 40.0131 121.711 40.0151C121.706 40.0188 121.689 40.0317 121.649 40.0475L122.392 41.9045ZM123.74 39.824V13.088H121.74V39.824H123.74ZM123.74 13.088C123.74 12.601 123.616 12.097 123.269 11.6798L121.732 12.9602C121.722 12.9483 121.722 12.9421 121.726 12.9543C121.731 12.9692 121.74 13.0102 121.74 13.088H123.74ZM123.269 11.6798C122.97 11.3211 122.57 11.079 122.152 10.9115L121.409 12.7685C121.63 12.857 121.711 12.9349 121.732 12.9602L123.269 11.6798ZM122.187 10.9262C121.797 10.7529 121.31 10.6235 120.765 10.5211L120.396 12.4869C120.874 12.5765 121.188 12.6711 121.374 12.7538L122.187 10.9262ZM120.797 10.5278L120.365 10.4318L119.931 12.3842L120.363 12.4802L120.797 10.5278ZM121.148 11.408V8.576H119.148V11.408H121.148ZM120.148 9.576H131.476V7.576H120.148V9.576ZM153.61 54.704V55.704H154.61V54.704H153.61ZM138.778 54.704H137.778V55.704H138.778V54.704ZM138.778 51.968V50.968H137.778V51.968H138.778ZM140.122 51.824L139.958 50.8376L139.919 50.8442L139.88 50.8539L140.122 51.824ZM140.986 51.392L140.336 50.6327L140.277 50.6828L140.227 50.7412L140.986 51.392ZM141.082 23.12L140.25 23.6747L140.305 23.7571L140.375 23.8271L141.082 23.12ZM140.41 22.64L140.782 21.7115L140.41 22.64ZM139.162 22.304L138.92 23.2741L138.949 23.2814L138.978 23.2869L139.162 22.304ZM138.778 22.208H137.778V22.9888L138.536 23.1781L138.778 22.208ZM138.778 19.328V18.328H137.778V19.328H138.778ZM149.53 19.328H150.53V18.328H149.53V19.328ZM149.53 25.52H148.53V26.3671L149.366 26.5064L149.53 25.52ZM150.106 25.616H151.106V24.7689L150.271 24.6296L150.106 25.616ZM150.586 51.776L150.782 50.7954L150.586 51.776ZM151.738 51.92L151.667 52.9175L151.672 52.9178L151.738 51.92ZM153.61 51.968H154.61V50.968H153.61V51.968ZM153.61 44L153.303 44.9517L153.312 44.9545L153.61 44ZM150.922 42.464L151.583 41.7133L150.922 42.464ZM148.714 39.776L147.717 39.6986L147.692 40.0239L147.864 40.3015L148.714 39.776ZM149.098 34.832L150.03 34.4696L148.101 34.7546L149.098 34.832ZM150.538 37.856L149.678 38.3658L149.689 38.3848L149.701 38.4032L150.538 37.856ZM152.362 39.776L151.808 40.6081L151.817 40.6139L151.826 40.6197L152.362 39.776ZM156.874 39.824L156.31 38.9987L156.874 39.824ZM158.362 38.048L159.257 38.4952L159.26 38.488L159.264 38.4807L158.362 38.048ZM159.226 35.168L160.212 35.337L159.226 35.168ZM159.226 27.776L160.21 27.5971V27.5971L159.226 27.776ZM158.362 25.136L157.468 25.5832L157.476 25.5992L157.484 25.6149L158.362 25.136ZM157.018 23.552L156.442 24.369L156.458 24.3806L156.475 24.3916L157.018 23.552ZM152.698 23.744L153.262 24.5702L153.274 24.5617L153.287 24.5527L152.698 23.744ZM150.73 25.856L149.894 25.308V25.308L150.73 25.856ZM149.002 29.168L148.005 29.2353L149.923 29.5591L149.002 29.168ZM148.714 24.896L147.846 24.3999L147.696 24.662L147.717 24.9633L148.714 24.896ZM151.114 21.536L150.395 20.8419L150.388 20.8486L150.382 20.8555L151.114 21.536ZM153.946 19.52L153.556 18.5994L153.546 18.6038L153.946 19.52ZM163.354 20.432L162.811 21.2717L162.823 21.2791L163.354 20.432ZM167.146 24.8L166.243 25.2287L167.146 24.8ZM167.05 38.192L167.948 38.6333L167.951 38.6276L167.05 38.192ZM163.066 42.8L163.617 43.6345L163.066 42.8ZM153.61 53.704H138.778V55.704H153.61V53.704ZM139.778 54.704V51.968H137.778V54.704H139.778ZM138.778 52.968H138.826V50.968H138.778V52.968ZM138.826 52.968C139.371 52.968 139.887 52.9136 140.365 52.7941L139.88 50.8539C139.59 50.9264 139.241 50.968 138.826 50.968V52.968ZM140.287 52.8104C140.828 52.7203 141.358 52.4951 141.746 52.0428L140.227 50.7412C140.226 50.7431 140.215 50.7557 140.179 50.7736C140.141 50.7928 140.071 50.8187 139.958 50.8376L140.287 52.8104ZM141.637 52.1513C142.145 51.7156 142.322 51.1099 142.322 50.528H140.322C140.322 50.625 140.308 50.6654 140.306 50.6696C140.306 50.671 140.308 50.6656 140.314 50.6565C140.321 50.6473 140.328 50.639 140.336 50.6327L141.637 52.1513ZM142.322 50.528V23.888H140.322V50.528H142.322ZM142.322 23.888C142.322 23.4143 142.219 22.842 141.789 22.4129L140.375 23.8271C140.35 23.8016 140.332 23.7769 140.321 23.7577C140.31 23.7391 140.307 23.7284 140.308 23.7303C140.309 23.7324 140.312 23.7454 140.316 23.7725C140.319 23.7994 140.322 23.8374 140.322 23.888H142.322ZM141.914 22.5653C141.631 22.1407 141.202 21.8797 140.782 21.7115L140.039 23.5685C140.142 23.6099 140.204 23.6462 140.237 23.6697C140.269 23.6926 140.265 23.6969 140.25 23.6747L141.914 22.5653ZM140.782 21.7115C140.379 21.5504 139.894 21.4237 139.347 21.3211L138.978 23.2869C139.455 23.3763 139.802 23.4736 140.039 23.5685L140.782 21.7115ZM139.405 21.3339L139.021 21.2379L138.536 23.1781L138.92 23.2741L139.405 21.3339ZM139.778 22.208V19.328H137.778V22.208H139.778ZM138.778 20.328H149.53V18.328H138.778V20.328ZM148.53 19.328V25.52H150.53V19.328H148.53ZM149.366 26.5064L149.942 26.6024L150.271 24.6296L149.695 24.5336L149.366 26.5064ZM149.106 25.616V51.536H151.106V25.616H149.106ZM149.106 51.536C149.106 52.207 149.656 52.5006 149.779 52.5624C149.979 52.6622 150.202 52.719 150.39 52.7566L150.782 50.7954C150.651 50.769 150.634 50.7538 150.674 50.7736C150.694 50.7837 150.782 50.8291 150.876 50.9323C150.982 51.0485 151.106 51.2555 151.106 51.536H149.106ZM150.39 52.7566C150.764 52.8312 151.192 52.8835 151.667 52.9175L151.81 50.9225C151.389 50.8925 151.049 50.8488 150.782 50.7954L150.39 52.7566ZM151.672 52.9178C152.169 52.9509 152.623 52.968 153.034 52.968V50.968C152.677 50.968 152.268 50.9531 151.805 50.9222L151.672 52.9178ZM153.034 52.968H153.61V50.968H153.034V52.968ZM152.61 51.968V54.704H154.61V51.968H152.61ZM157.114 43.48C155.882 43.48 154.817 43.3295 153.909 43.0455L153.312 44.9545C154.451 45.3105 155.723 45.48 157.114 45.48V43.48ZM153.917 43.0483C153.059 42.7713 152.283 42.3288 151.583 41.7133L150.262 43.2147C151.162 44.0072 152.178 44.5887 153.303 44.9517L153.917 43.0483ZM151.583 41.7133C150.87 41.0861 150.195 40.2707 149.565 39.2505L147.864 40.3015C148.577 41.4573 149.374 42.4339 150.262 43.2147L151.583 41.7133ZM149.711 39.8534L150.095 34.9094L148.101 34.7546L147.717 39.6986L149.711 39.8534ZM148.166 35.1944C148.63 36.3863 149.133 37.4454 149.678 38.3658L151.399 37.3462C150.92 36.5386 150.463 35.5817 150.03 34.4696L148.166 35.1944ZM149.701 38.4032C150.303 39.3229 151.001 40.07 151.808 40.6081L152.917 38.944C152.38 38.586 151.862 38.0531 151.375 37.3088L149.701 38.4032ZM151.826 40.6197C152.702 41.1773 153.691 41.448 154.762 41.448V39.448C154.042 39.448 153.431 39.2706 152.899 38.9323L151.826 40.6197ZM154.762 41.448C155.746 41.448 156.65 41.1889 157.439 40.6493L156.31 38.9987C155.882 39.2911 155.379 39.448 154.762 39.448V41.448ZM157.439 40.6493C158.209 40.1225 158.809 39.3899 159.257 38.4952L157.468 37.6008C157.147 38.2421 156.756 38.6935 156.31 38.9987L157.439 40.6493ZM159.264 38.4807C159.697 37.5775 160.008 36.5241 160.212 35.337L158.241 34.999C158.06 36.0519 157.795 36.9184 157.461 37.6153L159.264 38.4807ZM160.212 35.337C160.416 34.1498 160.514 32.8278 160.514 31.376H158.514C158.514 32.7402 158.421 33.9462 158.241 34.999L160.212 35.337ZM160.514 31.376C160.514 29.9863 160.415 28.7247 160.21 27.5971L158.243 27.9549C158.421 28.9393 158.514 30.0777 158.514 31.376H160.514ZM160.21 27.5971C160.005 26.4693 159.689 25.4805 159.24 24.6571L157.484 25.6149C157.803 26.1995 158.064 26.9707 158.243 27.9549L160.21 27.5971ZM159.257 24.6888C158.842 23.8593 158.285 23.1804 157.562 22.7124L156.475 24.3916C156.84 24.6276 157.179 25.0047 157.468 25.5832L159.257 24.6888ZM157.595 22.735C156.865 22.2195 156.018 21.976 155.098 21.976V23.976C155.651 23.976 156.084 24.1165 156.442 24.369L157.595 22.735ZM155.098 21.976C153.998 21.976 152.99 22.2951 152.11 22.9353L153.287 24.5527C153.814 24.1689 154.407 23.976 155.098 23.976V21.976ZM152.135 22.9178C151.295 23.4903 150.553 24.3018 149.894 25.308L151.567 26.404C152.124 25.5542 152.693 24.9577 153.262 24.5702L152.135 22.9178ZM149.894 25.308C149.246 26.2963 148.644 27.4553 148.082 28.7769L149.923 29.5591C150.449 28.3207 150.998 27.2717 151.567 26.404L149.894 25.308ZM150 29.1007L149.712 24.8287L147.717 24.9633L148.005 29.2353L150 29.1007ZM149.583 25.3921C150.322 24.0979 151.079 23.0439 151.847 22.2164L150.382 20.8555C149.486 21.8201 148.643 23.0061 147.846 24.3999L149.583 25.3921ZM151.834 22.2301C152.618 21.4176 153.456 20.8261 154.347 20.4362L153.546 18.6038C152.389 19.1099 151.339 19.8624 150.395 20.8419L151.834 22.2301ZM154.337 20.4406C155.247 20.0543 156.326 19.848 157.594 19.848V17.848C156.11 17.848 154.757 18.0896 153.556 18.5994L154.337 20.4406ZM157.594 19.848C159.637 19.848 161.362 20.334 162.811 21.2716L163.898 19.5924C162.083 18.418 159.968 17.848 157.594 17.848V19.848ZM162.823 21.2791C164.28 22.1933 165.421 23.4976 166.243 25.2287L168.05 24.3713C167.079 22.3264 165.693 20.7187 163.886 19.5849L162.823 21.2791ZM166.243 25.2287C167.064 26.9592 167.49 28.9998 167.49 31.376H169.49C169.49 28.7602 169.021 26.4168 168.05 24.3713L166.243 25.2287ZM167.49 31.376C167.49 33.8094 167.035 35.9285 166.15 37.7564L167.951 38.6276C168.986 36.4875 169.49 34.0626 169.49 31.376H167.49ZM166.153 37.7507C165.266 39.5548 164.053 40.9504 162.515 41.9655L163.617 43.6345C165.472 42.4096 166.915 40.7332 167.948 38.6333L166.153 37.7507ZM162.515 41.9655C161.002 42.9651 159.214 43.48 157.114 43.48V45.48C159.558 45.48 161.739 44.8749 163.617 43.6345L162.515 41.9655ZM185.426 8.576H186.426V7.576H185.426V8.576ZM185.762 41.072L185.368 41.9911L185.426 42.0161L185.487 42.0335L185.762 41.072ZM186.626 41.216L186.536 42.2119L186.626 41.216ZM187.73 41.264H188.73V40.264H187.73V41.264ZM187.73 44V45H188.73V44H187.73ZM174.05 44H173.05V45H174.05V44ZM174.05 41.264V40.264H173.05V41.264H174.05ZM175.394 41.168L175.559 42.1544L175.598 42.1478L175.637 42.1381L175.394 41.168ZM176.306 40.736L176.957 41.4953L176.986 41.4703L177.013 41.4431L176.306 40.736ZM176.402 12.32L175.57 12.8747L175.6 12.9191L175.634 12.9602L176.402 12.32ZM174.482 11.504L174.265 12.4802L174.281 12.4838L174.298 12.4869L174.482 11.504ZM174.05 11.408H173.05V12.2102L173.833 12.3842L174.05 11.408ZM174.05 8.576V7.576H173.05V8.576H174.05ZM204.29 44V45H205.29V44H204.29ZM190.658 44H189.658V45H190.658V44ZM190.658 41.264V40.264H189.658V41.264H190.658ZM191.666 41.216L191.757 42.2119V42.2119L191.666 41.216ZM192.578 41.072L192.821 42.0421L192.578 41.072ZM192.674 24.944L193.61 24.5929V24.5929L192.674 24.944ZM191.81 23.792L192.365 22.9599L192.365 22.9599L191.81 23.792ZM188.114 24.032L188.64 24.8823L188.114 24.032ZM186.194 25.904L185.387 25.314L185.383 25.3197L186.194 25.904ZM184.514 28.88L183.515 28.9157L185.423 29.2975L184.514 28.88ZM184.37 24.848L183.467 24.4189L183.362 24.6396L183.371 24.8837L184.37 24.848ZM186.626 21.632L187.32 22.3518L187.327 22.3455L187.333 22.3391L186.626 21.632ZM189.698 19.568L189.322 18.6412L189.314 18.6449L189.698 19.568ZM197.858 19.808L197.392 20.6929L197.402 20.6978L197.411 20.7024L197.858 19.808ZM200.69 22.592L199.81 23.0661L199.815 23.0757L200.69 22.592ZM202.418 40.976L202.047 41.9045L202.418 40.976ZM204.29 41.264H205.29V40.264H204.29V41.264ZM184.426 8.576V40.736H186.426V8.576H184.426ZM184.426 40.736C184.426 41.5357 185.117 41.8835 185.368 41.9911L186.156 40.1529C186.105 40.1308 186.148 40.1399 186.217 40.2089C186.302 40.2932 186.426 40.4748 186.426 40.736H184.426ZM185.487 42.0335C185.794 42.1211 186.15 42.1768 186.536 42.2119L186.717 40.2201C186.399 40.1912 186.178 40.1509 186.037 40.1105L185.487 42.0335ZM186.536 42.2119C186.911 42.246 187.262 42.264 187.586 42.264V40.264C187.334 40.264 187.045 40.25 186.717 40.2201L186.536 42.2119ZM187.586 42.264H187.73V40.264H187.586V42.264ZM186.73 41.264V44H188.73V41.264H186.73ZM187.73 43H174.05V45H187.73V43ZM175.05 44V41.264H173.05V44H175.05ZM174.05 42.264H174.146V40.264H174.05V42.264ZM174.146 42.264C174.641 42.264 175.113 42.2287 175.559 42.1544L175.23 40.1816C174.907 40.2353 174.547 40.264 174.146 40.264V42.264ZM175.637 42.1381C176.122 42.0168 176.582 41.8167 176.957 41.4953L175.655 39.9767C175.582 40.0393 175.434 40.1272 175.152 40.1979L175.637 42.1381ZM177.013 41.4431C177.463 40.993 177.642 40.4132 177.642 39.824H175.642C175.642 39.9194 175.628 39.9714 175.62 39.9943C175.613 40.0137 175.606 40.0216 175.599 40.0289L177.013 41.4431ZM177.642 39.824V13.088H175.642V39.824H177.642ZM177.642 13.088C177.642 12.601 177.518 12.097 177.17 11.6798L175.634 12.9602C175.624 12.9483 175.624 12.9421 175.628 12.9543C175.632 12.9692 175.642 13.0102 175.642 13.088H177.642ZM177.234 11.7653C176.951 11.3407 176.522 11.0797 176.102 10.9115L175.359 12.7685C175.462 12.8099 175.524 12.8462 175.557 12.8697C175.589 12.8926 175.585 12.8969 175.57 12.8747L177.234 11.7653ZM176.102 10.9115C175.699 10.7504 175.213 10.6237 174.666 10.5211L174.298 12.4869C174.775 12.5763 175.121 12.6736 175.359 12.7685L176.102 10.9115ZM174.699 10.5278L174.267 10.4318L173.833 12.3842L174.265 12.4802L174.699 10.5278ZM175.05 11.408V8.576H173.05V11.408H175.05ZM174.05 9.576H185.426V7.576H174.05V9.576ZM204.29 43H190.658V45H204.29V43ZM191.658 44V41.264H189.658V44H191.658ZM190.658 42.264H190.706V40.264H190.658V42.264ZM190.706 42.264C191.03 42.264 191.381 42.246 191.757 42.2119L191.576 40.2201C191.247 40.25 190.958 40.264 190.706 40.264V42.264ZM191.757 42.2119C192.144 42.1767 192.501 42.122 192.821 42.0421L192.336 40.1019C192.143 40.15 191.892 40.1913 191.576 40.2201L191.757 42.2119ZM192.821 42.0421C192.986 42.0007 193.201 41.9341 193.396 41.812C193.577 41.6991 193.962 41.3907 193.962 40.832H191.962C191.962 40.3693 192.283 40.1489 192.336 40.116C192.403 40.0739 192.426 40.0793 192.336 40.1019L192.821 42.0421ZM193.962 40.832V26.912H191.962V40.832H193.962ZM193.962 26.912C193.962 26.0426 193.859 25.2563 193.61 24.5929L191.738 25.2951C191.873 25.6557 191.962 26.1814 191.962 26.912H193.962ZM193.61 24.5929C193.359 23.9218 192.954 23.3526 192.365 22.9599L191.255 24.624C191.434 24.7434 191.605 24.9422 191.738 25.2951L193.61 24.5929ZM192.365 22.9599C191.764 22.5596 191.038 22.408 190.274 22.408V24.408C190.79 24.408 191.088 24.5124 191.255 24.624L192.365 22.9599ZM190.274 22.408C189.315 22.408 188.413 22.6709 187.588 23.1817L188.64 24.8823C189.159 24.5611 189.698 24.408 190.274 24.408V22.408ZM187.588 23.1817C186.778 23.6827 186.049 24.408 185.387 25.314L187.002 26.494C187.555 25.736 188.106 25.2133 188.64 24.8823L187.588 23.1817ZM185.383 25.3197C184.759 26.1856 184.168 27.2374 183.605 28.4625L185.423 29.2975C185.948 28.1546 186.477 27.2224 187.006 26.4883L185.383 25.3197ZM185.513 28.8443L185.369 24.8123L183.371 24.8837L183.515 28.9157L185.513 28.8443ZM185.273 25.2771C185.837 24.0909 186.522 23.1216 187.32 22.3518L185.932 20.9122C184.938 21.8704 184.119 23.0451 183.467 24.4189L185.273 25.2771ZM187.333 22.3391C188.138 21.534 189.053 20.9201 190.083 20.4911L189.314 18.6449C188.039 19.1759 186.906 19.938 185.919 20.9249L187.333 22.3391ZM190.074 20.4947C191.13 20.0667 192.281 19.848 193.538 19.848V17.848C192.043 17.848 190.635 18.1093 189.322 18.6413L190.074 20.4947ZM193.538 19.848C195.074 19.848 196.347 20.1429 197.392 20.6929L198.324 18.9231C196.937 18.1931 195.33 17.848 193.538 17.848V19.848ZM197.411 20.7024C198.434 21.2142 199.231 21.9913 199.81 23.0661L201.571 22.1179C200.805 20.6967 199.714 19.6178 198.305 18.9136L197.411 20.7024ZM199.815 23.0757C200.383 24.1044 200.698 25.4459 200.698 27.152H202.698C202.698 25.2101 202.341 23.5116 201.565 22.1083L199.815 23.0757ZM200.698 27.152V39.824H202.698V27.152H200.698ZM200.698 39.824C200.698 40.249 200.787 40.6851 201.03 41.074C201.278 41.4709 201.639 41.7412 202.047 41.9045L202.79 40.0475C202.75 40.0317 202.732 40.0188 202.728 40.0151C202.725 40.0131 202.725 40.0124 202.725 40.013C202.726 40.0136 202.726 40.0141 202.726 40.014C202.726 40.0139 202.725 40.0116 202.722 40.0064C202.72 40.001 202.717 39.9917 202.713 39.9775C202.706 39.9485 202.698 39.8993 202.698 39.824H200.698ZM202.047 41.9045C202.679 42.1575 203.406 42.264 204.194 42.264V40.264C203.574 40.264 203.117 40.1785 202.79 40.0475L202.047 41.9045ZM204.194 42.264H204.29V40.264H204.194V42.264ZM203.29 41.264V44H205.29V41.264H203.29Z" fill="#5819DE"/>
</g>
<defs>
<filter id="filter0_d_1230_26" x="76.395" y="61.0098" width="132.232" height="18.4902" filterUnits="userSpaceOnUse" color-interpolation-filters="sRGB">
<feFlood flood-opacity="0" result="BackgroundImageFix"/>
<feColorMatrix in="SourceAlpha" type="matrix" values="0 0 0 0 0 0 0 0 0 0 0 0 0 0 0 0 0 0 127 0" result="hardAlpha"/>
<feOffset dy="4"/>
<feGaussianBlur stdDeviation="2"/>
<feComposite in2="hardAlpha" operator="out"/>
<feColorMatrix type="matrix" values="0 0 0 0 0 0 0 0 0 0 0 0 0 0 0 0 0 0 0.25 0"/>
<feBlend mode="normal" in2="BackgroundImageFix" result="effect1_dropShadow_1230_26"/>
<feBlend mode="normal" in="SourceGraphic" in2="effect1_dropShadow_1230_26" result="shape"/>
</filter>
<filter id="filter1_d_1230_26" x="0" y="0" width="81" height="72" filterUnits="userSpaceOnUse" color-interpolation-filters="sRGB">
<feFlood flood-opacity="0" result="BackgroundImageFix"/>
<feColorMatrix in="SourceAlpha" type="matrix" values="0 0 0 0 0 0 0 0 0 0 0 0 0 0 0 0 0 0 127 0" result="hardAlpha"/>
<feOffset dy="4"/>
<feGaussianBlur stdDeviation="2"/>
<feComposite in2="hardAlpha" operator="out"/>
<feColorMatrix type="matrix" values="0 0 0 0 0 0 0 0 0 0 0 0 0 0 0 0 0 0 0.25 0"/>
<feBlend mode="normal" in2="BackgroundImageFix" result="effect1_dropShadow_1230_26"/>
<feBlend mode="normal" in="SourceGraphic" in2="effect1_dropShadow_1230_26" result="shape"/>
</filter>
<filter id="filter2_d_1230_26" x="82.5262" y="8.57617" width="125.764" height="54.1279" filterUnits="userSpaceOnUse" color-interpolation-filters="sRGB">
<feFlood flood-opacity="0" result="BackgroundImageFix"/>
<feColorMatrix in="SourceAlpha" type="matrix" values="0 0 0 0 0 0 0 0 0 0 0 0 0 0 0 0 0 0 127 0" result="hardAlpha"/>
<feOffset dy="4"/>
<feGaussianBlur stdDeviation="2"/>
<feComposite in2="hardAlpha" operator="out"/>
<feColorMatrix type="matrix" values="0 0 0 0 0 0 0 0 0 0 0 0 0 0 0 0 0 0 0.25 0"/>
<feBlend mode="normal" in2="BackgroundImageFix" result="effect1_dropShadow_1230_26"/>
<feBlend mode="normal" in="SourceGraphic" in2="effect1_dropShadow_1230_26" result="shape"/>
</filter>
</defs>
</svg>
