<svg width="81" height="72" viewBox="0 0 81 72" fill="none" xmlns="http://www.w3.org/2000/svg">
<g filter="url(#filter0_d_1227_23)">
<path d="M67.9935 28.2017C71.8289 28.2242 73.0708 27.273 73.549 26.6555C75.3289 24.6154 72.5412 20.7053 66.0051 17.739C68.5402 13.5414 70.303 9.77886 71.1923 7.07631C71.6748 5.59752 71.3479 4.70126 71.2565 4.545C71.011 5.86003 68.9941 10.6026 64.3764 17.0515C60.8079 15.649 56.3087 14.539 50.9917 14.0765C49.7156 11.9589 46.0129 6.09379 42.3587 2.95997C39.9549 0.891177 38.0308 0.132411 36.5292 0.0261585H36.522C34.5479 -0.167596 33.2861 0.757424 32.6109 1.40119C30.1558 3.71749 29.1381 7.51007 29.0424 11.9102C28.009 10.3664 26.5916 8.83134 24.9743 8.66884H24.9486C21.9996 8.23383 19.4688 12.3214 19.81 18.8303C14.3344 19.0028 9.67537 19.5491 6.53507 20.2341C5.12194 20.5403 4.21982 21.1429 4 21.4491C4.14274 21.4016 7.19739 20.2966 19.9241 20.2966C20.6693 26.9217 24.1707 33.0244 23.6354 31.9456C22.2465 33.8706 18.177 39.7407 16.8823 44.1583C16.0445 47.0184 16.2586 48.8597 16.9038 50.051C17.6988 51.6447 19.2461 52.141 20.2153 52.3335C23.7839 53.0473 28.1203 51.8797 32.591 49.6909C31.5161 51.296 30.6069 53.2548 31.2977 54.6086C32.3412 57.0649 37.6483 56.9411 43.9217 53.4273C46.8022 57.4499 49.6413 60.6699 51.8724 62.6925C52.2386 63.0383 52.6591 63.3367 53.1213 63.5787C53.855 63.98 54.3461 64 54.3461 64C53.1699 63.1562 49.4929 59.2499 45.4191 52.5273C48.5908 50.5272 51.9352 47.6684 55.0498 43.8683C72.5812 44.4433 75.5031 40.7733 76.1754 39.9132C78.2694 37.4282 76.665 32.7331 67.9935 28.2017ZM56.8811 41.4795C60.2798 36.7657 61.2119 33.0081 61.0848 29.938C65.0616 32.1343 67.8193 34.6356 68.0877 37.2919C68.2504 38.9082 66.9315 40.932 56.8811 41.4795ZM34.9191 48.4609C36.3122 47.6822 37.7068 46.8209 39.0871 45.8996C40.0406 47.5659 41.0284 49.1622 42.0275 50.6735C36.2323 53.406 32.2013 52.2685 34.9191 48.4609ZM65.6083 27.0417C64.1395 26.3742 62.5879 25.7492 60.9864 25.1604C62.1208 23.6517 63.2032 22.1135 64.2323 20.5478C69.8077 23.5604 70.7841 27.1955 65.6083 27.0417ZM43.8089 49.7497C43.0224 48.3309 42.2388 46.8121 41.4537 45.1946C47.6273 45.3534 50.3636 42.8533 50.4864 42.6433C50.4864 42.6521 46.9178 44.5983 41.5608 44.1746C45.9339 40.9758 49.9951 37.4636 53.7023 33.6744C54.9451 32.3985 56.1313 31.1022 57.2608 29.7855C57.2094 29.7493 57.041 29.4105 54.9042 28.2855C47.5245 35.8194 40.2961 40.5358 35.9554 42.7758C33.0163 41.3783 30.1258 38.8032 28.0033 35.0894C25.1485 30.0993 23.7211 24.7904 23.497 20.5803C25.2527 20.6941 27.104 20.8516 29.0424 21.0653C25.8607 25.6654 26.9884 28.9405 27.1197 29.0943C27.1197 29.0855 26.9841 25.4479 29.9945 21.6479C31.2773 28.2092 33.4168 34.6197 36.3707 40.7533C36.5035 40.7058 36.6334 40.8633 39.0357 39.722C35.2773 30.413 34.2168 22.4504 34.1825 18.0428C37.0373 16.4903 41.0598 15.5677 45.8344 15.8165C52.1964 16.1502 58.1615 17.7228 62.438 19.6553C61.4208 20.9603 60.3107 22.3133 59.1079 23.7142C56.1489 18.9991 52.362 18.229 52.1336 18.249C52.1493 18.249 55.8306 20.0078 58.0602 24.1517C52.7078 22.4314 47.2008 21.1056 41.5965 20.1878C39.7316 19.8852 37.8565 19.633 35.9739 19.4316C35.9639 19.4878 35.7155 19.6628 35.6656 21.9729C46.7808 23.7842 55.1711 26.9592 59.5361 29.1243C59.6417 32.0681 58.5441 35.5757 55.9091 39.0707C52.3977 43.7346 47.8599 47.4747 43.8089 49.7497ZM47.72 13.8739C41.3595 13.6664 37.2172 14.8027 34.2039 16.4578C34.4894 9.92011 37.2457 6.91005 39.658 7.04756C42.0704 6.51754 47.4945 13.5677 47.72 13.8739ZM29.071 14.2615C29.1395 15.7752 29.2979 17.339 29.5292 18.9216C27.4523 18.8153 25.4268 18.7653 23.477 18.764C23.4655 19.1691 23.4598 12.3889 26.9984 12.5652H27.0112C27.8334 12.7014 28.5286 13.4252 29.071 14.2615ZM25.0657 34.5119C28.029 39.4745 31.2463 42.0833 34.3795 43.5508C27.7007 46.6459 23.3128 46.0509 22.258 44.1146C22.2294 44.0883 20.6693 42.202 25.0657 34.5131V34.5119Z" fill="#0EACE1"/>
</g>
<defs>
<filter id="filter0_d_1227_23" x="0" y="0" width="81" height="72" filterUnits="userSpaceOnUse" color-interpolation-filters="sRGB">
<feFlood flood-opacity="0" result="BackgroundImageFix"/>
<feColorMatrix in="SourceAlpha" type="matrix" values="0 0 0 0 0 0 0 0 0 0 0 0 0 0 0 0 0 0 127 0" result="hardAlpha"/>
<feOffset dy="4"/>
<feGaussianBlur stdDeviation="2"/>
<feComposite in2="hardAlpha" operator="out"/>
<feColorMatrix type="matrix" values="0 0 0 0 0 0 0 0 0 0 0 0 0 0 0 0 0 0 0.25 0"/>
<feBlend mode="normal" in2="BackgroundImageFix" result="effect1_dropShadow_1227_23"/>
<feBlend mode="normal" in="SourceGraphic" in2="effect1_dropShadow_1227_23" result="shape"/>
</filter>
</defs>
</svg>
